<?xml version="1.0" encoding="UTF-8" standalone="no"?>
<svg
   xmlns:dc="http://purl.org/dc/elements/1.1/"
   xmlns:cc="http://creativecommons.org/ns#"
   xmlns:rdf="http://www.w3.org/1999/02/22-rdf-syntax-ns#"
   xmlns:svg="http://www.w3.org/2000/svg"
   xmlns="http://www.w3.org/2000/svg"
   xmlns:xlink="http://www.w3.org/1999/xlink"
   xmlns:sodipodi="http://sodipodi.sourceforge.net/DTD/sodipodi-0.dtd"
   xmlns:inkscape="http://www.inkscape.org/namespaces/inkscape"
   width="210mm"
   height="297mm"
   viewBox="0 0 210 297"
   version="1.1"
   id="svg860"
   inkscape:version="1.0.2 (e86c870, 2021-01-15)"
   sodipodi:docname="layout.svg">
  <defs
     id="defs854">
    <linearGradient
       inkscape:collect="always"
       id="linearGradient1556">
      <stop
         style="stop-color:#2c89a0;stop-opacity:1"
         offset="0"
         id="stop1552" />
      <stop
         style="stop-color:#000000;stop-opacity:0;"
         offset="1"
         id="stop1554" />
    </linearGradient>
    <linearGradient
       inkscape:collect="always"
       xlink:href="#linearGradient1556"
       id="linearGradient1558"
       x1="83.388092"
       y1="221.29916"
       x2="127.2203"
       y2="9.0871639"
       gradientUnits="userSpaceOnUse" />
    <filter
       inkscape:collect="always"
       style="color-interpolation-filters:sRGB"
       id="filter1688"
       x="-0.04495309"
       width="1.0899062"
       y="-0.044953258"
       height="1.0899065">
      <feGaussianBlur
         inkscape:collect="always"
         stdDeviation="10.318421"
         id="feGaussianBlur1690" />
    </filter>
  </defs>
  <sodipodi:namedview
     id="base"
     pagecolor="#ffffff"
     bordercolor="#666666"
     borderopacity="1.0"
     inkscape:pageopacity="0.0"
     inkscape:pageshadow="2"
     inkscape:zoom="0.49497475"
     inkscape:cx="445.54633"
     inkscape:cy="415.05086"
     inkscape:document-units="mm"
     inkscape:current-layer="layer1"
     inkscape:document-rotation="0"
     showgrid="false"
     inkscape:window-width="1918"
     inkscape:window-height="1041"
     inkscape:window-x="2553"
     inkscape:window-y="0"
     inkscape:window-maximized="0" />
  <metadata
     id="metadata857">
    <rdf:RDF>
      <cc:Work
         rdf:about="">
        <dc:format>image/svg+xml</dc:format>
        <dc:type
           rdf:resource="http://purl.org/dc/dcmitype/StillImage" />
        <dc:title></dc:title>
      </cc:Work>
    </rdf:RDF>
  </metadata>
  <g
     inkscape:label="Layer 1"
     inkscape:groupmode="layer"
     id="layer1">
    <circle
       style="opacity:1;fill:#eeffaa;fill-opacity:1;stroke-width:0.630241"
       id="circle1546"
       cx="92.207985"
       cy="200.98668"
       r="169.71616" />
    <circle
       style="opacity:1;fill:#ffdd55;fill-opacity:1;stroke-width:0.461515"
       id="path1544"
       cx="52.117558"
       cy="52.652096"
       r="124.28033" />
    <circle
       style="opacity:1;fill:#ff9955;fill-opacity:1;stroke-width:0.504192"
       id="circle1548"
       cx="226.11002"
       cy="97.820648"
       r="135.77292" />
    <circle
       style="opacity:0.6;fill:url(#linearGradient1558);fill-opacity:1;stroke-width:0.264999;stroke:none"
       id="path1550"
       cx="109.92285"
       cy="115.54224"
       r="111.18412"
       inkscape:export-xdpi="116.97"
       inkscape:export-ydpi="116.97" />
    <path
       id="path1560"
       style="fill:#000000;fill-opacity:1;stroke-width:1.00157;filter:url(#filter1688);opacity:0.48064516"
       d="M 346.90625 161.25195 A 207.58635 207.58635 0 0 0 200.8125 222.05078 A 207.58635 207.58635 0 0 0 200.8125 515.62305 A 207.58635 207.58635 0 0 0 451.56055 548.51172 L 484.48438 581.4375 L 553.97656 650.92969 L 599.45703 696.41016 C 620.42989 717.38302 654.19901 717.38107 675.17188 696.4082 C 696.14474 675.43538 696.14474 641.66818 675.17188 620.69531 L 629.69141 575.21484 L 560.19922 505.72266 L 527.27344 472.79883 A 207.58635 207.58635 0 0 0 494.38281 222.05078 A 207.58635 207.58635 0 0 0 494.26172 221.93164 A 207.58635 207.58635 0 0 0 346.90625 161.25195 z M 347.13672 210.74805 A 158.08888 158.08888 0 0 1 459.38281 257.05273 A 158.08888 158.08888 0 0 1 459.38281 480.62305 A 158.08888 158.08888 0 0 1 235.81055 480.62305 A 158.08888 158.08888 0 0 1 235.81055 257.05078 A 158.08888 158.08888 0 0 1 347.13672 210.74805 z M 346.80078 304.03516 C 297.19951 304.13176 250.66667 328.09106 221.73242 368.43164 C 250.72824 408.85653 297.39196 432.8256 347.09766 432.82617 C 396.8047 432.82689 443.47015 408.85766 472.4668 368.43164 C 443.4706 328.00489 396.80508 304.03491 347.09766 304.03516 L 346.80078 304.03516 z M 346.80664 325.53906 L 346.85156 325.53906 L 347.10156 325.53906 C 384.46904 325.53886 419.79208 341.26681 444.7793 368.43555 C 419.79239 395.60233 384.4701 411.32475 347.10156 411.32422 C 309.73384 411.3238 274.41048 395.60131 249.42383 368.43555 C 274.34169 341.34265 309.54635 325.62407 346.80664 325.53906 z M 346.85742 327.53906 A 40.892852 40.892852 0 0 0 306.20898 368.43164 A 40.892852 40.892852 0 0 0 347.10156 409.32422 A 40.892852 40.892852 0 0 0 387.99414 368.43164 A 40.892852 40.892852 0 0 0 347.10156 327.53906 A 40.892852 40.892852 0 0 0 346.85742 327.53906 z M 347.03906 348.60938 A 19.821427 19.821427 0 0 1 347.10156 348.60938 A 19.821427 19.821427 0 0 1 366.92383 368.43164 A 19.821427 19.821427 0 0 1 347.10156 388.25195 A 19.821427 19.821427 0 0 1 327.28125 368.43164 A 19.821427 19.821427 0 0 1 347.03906 348.60938 z "
       transform="scale(0.26458333)" />
    <path
       id="path1468"
       style="fill:#084446;fill-opacity:1;stroke-width:0.264999"
       d="m 130.77366,58.719366 a 54.923888,54.923888 0 0 0 -77.64211,0.03179 54.923888,54.923888 0 0 0 0,77.673984 54.923888,54.923888 0 0 0 66.3437,8.70217 l 8.71132,8.71132 18.38658,18.38658 12.03324,12.03323 c 5.54907,5.54907 14.48366,5.5487 20.03273,-3.7e-4 5.54907,-5.54906 5.54907,-14.48329 0,-20.03236 l -12.03324,-12.03324 -18.38657,-18.38657 -8.71132,-8.71133 a 54.923888,54.923888 0 0 0 -8.70254,-66.343414 54.923888,54.923888 0 0 0 -0.0318,-0.03179 z m -9.22874,9.292316 a 41.827682,41.827682 0 0 1 0,59.152928 41.827682,41.827682 0 0 1 -59.15321,3.7e-4 41.827682,41.827682 0 0 1 0,-59.153664 41.827682,41.827682 0 0 1 59.15321,3.66e-4 z" />
    <path
       id="path1512"
       style="fill:#084446;fill-opacity:1;stroke-width:1.00157"
       d="M 346.80078 304.03516 C 297.19951 304.13176 250.66667 328.09106 221.73242 368.43164 C 250.72824 408.85653 297.39196 432.8256 347.09766 432.82617 C 396.8047 432.82689 443.47015 408.85766 472.4668 368.43164 C 443.4706 328.00489 396.80508 304.03491 347.09766 304.03516 L 346.80078 304.03516 z M 346.80664 325.53906 L 346.85156 325.53906 L 347.10156 325.53906 C 384.46904 325.53886 419.79208 341.26681 444.7793 368.43555 C 419.79239 395.60233 384.4701 411.32475 347.10156 411.32422 C 309.73384 411.3238 274.41048 395.60131 249.42383 368.43555 C 274.34169 341.34265 309.54635 325.62407 346.80664 325.53906 z M 346.85742 327.53906 A 40.892852 40.892852 0 0 0 306.20898 368.43164 A 40.892852 40.892852 0 0 0 347.10156 409.32422 A 40.892852 40.892852 0 0 0 387.99414 368.43164 A 40.892852 40.892852 0 0 0 347.10156 327.53906 A 40.892852 40.892852 0 0 0 346.85742 327.53906 z M 347.03906 348.60938 A 19.821427 19.821427 0 0 1 347.10156 348.60938 A 19.821427 19.821427 0 0 1 366.92383 368.43164 A 19.821427 19.821427 0 0 1 347.10156 388.25195 A 19.821427 19.821427 0 0 1 327.28125 368.43164 A 19.821427 19.821427 0 0 1 347.03906 348.60938 z "
       transform="scale(0.26458333)" />
    <rect
       style="opacity:0.0612903;fill:#ffffff;fill-opacity:1;stroke:none;stroke-width:1.20123"
       id="rect1696"
       width="290.11002"
       height="181.31876"
       x="-35.132156"
       y="24.882856"
       inkscape:export-filename="D:\Git\App.BenfordLaw\640x400.png"
       inkscape:export-xdpi="56.029999"
       inkscape:export-ydpi="56.029999" />
  </g>
</svg>
